<?xml version="1.0" encoding="UTF-8" standalone="no"?>
<svg
   xmlns:dc="http://purl.org/dc/elements/1.1/"
   xmlns:cc="http://creativecommons.org/ns#"
   xmlns:rdf="http://www.w3.org/1999/02/22-rdf-syntax-ns#"
   xmlns:svg="http://www.w3.org/2000/svg"
   xmlns="http://www.w3.org/2000/svg"
   xmlns:sodipodi="http://sodipodi.sourceforge.net/DTD/sodipodi-0.dtd"
   xmlns:inkscape="http://www.inkscape.org/namespaces/inkscape"
   viewBox="0 0 1922.002 448.145"
   version="1.1"
   id="svg10"
   sodipodi:docname="footer.svg"
   inkscape:version="0.92.3 (2405546, 2018-03-11)">
  <metadata
     id="metadata14">
    <rdf:RDF>
      <cc:Work
         rdf:about="">
        <dc:format>image/svg+xml</dc:format>
        <dc:type
           rdf:resource="http://purl.org/dc/dcmitype/StillImage" />
      </cc:Work>
    </rdf:RDF>
  </metadata>
  <sodipodi:namedview
     pagecolor="#ffffff"
     bordercolor="#666666"
     borderopacity="1"
     objecttolerance="10"
     gridtolerance="10"
     guidetolerance="10"
     inkscape:pageopacity="0"
     inkscape:pageshadow="2"
     inkscape:window-width="1920"
     inkscape:window-height="1080"
     id="namedview12"
     showgrid="false"
     inkscape:zoom="0.38553189"
     inkscape:cx="464.96121"
     inkscape:cy="-164.36952"
     inkscape:window-x="0"
     inkscape:window-y="0"
     inkscape:window-maximized="1"
     inkscape:current-layer="svg10" />
  <defs
     id="defs4">
    <style
       id="style2">
      .cls-1, .cls-2, .cls-3 {
        fill: #efeeff;
      }

      .cls-1 {
        opacity: 0.401;
      }

      .cls-2 {
        opacity: 0.217;
      }
    </style>
  </defs>
  <g
     id="Group_23"
     data-name="Group 23"
     transform="translate(0.158 -3034.104)"
     style="fill:#dcdcdc;fill-opacity:0.34274194">
    <path
       id="Path_290"
       data-name="Path 290"
       class="cls-1"
       d="M-19.158,3260.237s254.784-99.3,603.256,0,980.587-117.878,980.587-117.878,61.455-36.249,184.887-21.879c.167.053-.222,403.157,0,402.33l-796.5-12.978-972.227,13.417Z"
       transform="translate(171 -41)"
       style="fill:#dcdcdc;fill-opacity:0.34274194" />
    <path
       id="Path_299"
       data-name="Path 299"
       class="cls-2"
       d="M-19.158,3260.237s254.784-99.3,603.256,0,980.587-117.878,980.587-117.878,214.683-36.256,338.115-21.887c.167.053-.222,403.157,0,402.33l-949.731-12.971-972.227,13.417Z"
       transform="translate(19 -83)"
       style="fill:#dcdcdc;fill-opacity:0.34274194" />
    <path
       id="Path_289"
       data-name="Path 289"
       class="cls-3"
       d="M44.287,3243.82c96.5-22.961,295.183-53.288,539.811,16.417,348.472,99.3,980.587-117.878,980.587-117.878s118.549-78.494,356.9,21.041a253.947,253.947,0,0,1,43.147,22.693c.267,1.019-.135,314.673,0,313.447-.384-.362-1920.445.607-1920.445.607S44.449,3243.792,44.287,3243.82Z"
       transform="translate(-44 -18)"
       style="fill:#dcdcdc;fill-opacity:0.34274194" />
  </g>
</svg>
